<svg width="20" height="20" viewBox="0 0 444 450" fill="none" xmlns="http://www.w3.org/2000/svg">
<path d="M443.443 264.143C443.448 288.617 434.86 312.316 419.175 331.103C403.491 349.891 381.708 362.575 357.626 366.94C333.545 371.306 308.695 367.078 287.413 354.992C266.132 342.906 249.77 323.731 241.183 300.813C241.103 369.543 245.513 415.273 310.733 449.813H133.163C198.383 415.283 202.793 369.563 202.713 300.813C195.537 319.922 182.918 336.508 166.416 348.521C149.913 360.534 130.252 367.446 109.863 368.403C89.4735 369.36 69.2509 364.32 51.696 353.905C34.141 343.491 20.0236 328.159 11.0897 309.807C2.15579 291.454 -1.2028 270.885 1.42928 250.644C4.06136 230.403 12.5687 211.377 25.8991 195.92C39.2296 180.462 56.7985 169.251 76.433 163.673C96.0676 158.094 116.907 158.393 136.373 164.533C125.416 148.88 118.963 130.521 117.716 111.455C116.469 92.3895 120.475 73.3467 129.299 56.3996C138.122 39.4524 151.426 25.2503 167.761 15.3389C184.096 5.42752 202.836 0.186615 221.943 0.186615C241.05 0.186615 259.79 5.42752 276.125 15.3389C292.46 25.2503 305.764 39.4524 314.587 56.3996C323.411 73.3467 327.418 92.3895 326.17 111.455C324.923 130.521 318.47 148.88 307.513 164.533C323.164 159.597 339.756 158.417 355.948 161.087C372.14 163.758 387.475 170.204 400.712 179.904C413.948 189.604 424.714 202.285 432.138 216.92C439.562 231.555 443.435 247.733 443.443 264.143Z" fill="black"/>
</svg>
