<svg width="20" height="21" viewBox="0 0 14 15" fill="none" xmlns="http://www.w3.org/2000/svg">
<path d="M6.184 11.246C5.72278 11.7971 5.10311 12.1928 4.40916 12.3795C3.71521 12.5662 2.98063 12.5347 2.30518 12.2894C1.62973 12.0441 1.04617 11.5968 0.633759 11.0083C0.221346 10.4198 7.44014e-05 9.71862 0 9C0 7.398 1.14 6.367 2.66 4.992C3.986 3.792 5.602 2.33 7 0C8.398 2.33 10.014 3.792 11.34 4.992C12.86 6.367 14 7.398 14 9C13.9999 9.71862 13.7787 10.4198 13.3662 11.0083C12.9538 11.5968 12.3703 12.0441 11.6948 12.2894C11.0194 12.5347 10.2848 12.5662 9.59084 12.3795C8.89689 12.1928 8.27722 11.7971 7.816 11.246C8.26212 12.257 8.79126 13.2294 9.398 14.153C9.629 14.503 9.378 15 8.96 15H5.04C4.621 15 4.37 14.503 4.602 14.153C5.20874 13.2294 5.73788 12.257 6.184 11.246Z" fill="black"/>
</svg>
